<svg xmlns="http://www.w3.org/2000/svg" width="115.28" height="30.08" viewBox="0 0 115.28 30.08">
  <path id="Title" d="M11.88-28.56,9.4-16.96h.72A6.856,6.856,0,0,1,16.4-20.4a6.121,6.121,0,0,1,4.88,2.08,8.139,8.139,0,0,1,1.8,5.52,16.9,16.9,0,0,1-.86,5.56,13.016,13.016,0,0,1-2.34,4.22A10.038,10.038,0,0,1,16.4-.36a10.026,10.026,0,0,1-4.24.92A7.565,7.565,0,0,1,9.94.28,4.3,4.3,0,0,1,8.46-.48a3.519,3.519,0,0,1-.9-1.1,4.539,4.539,0,0,1-.44-1.3H6.4L5.8,0H.8l6-28.56ZM11.52-4.24a6.122,6.122,0,0,0,2.6-.62,6.219,6.219,0,0,0,2-1.58,7.053,7.053,0,0,0,1.28-2.3,8.615,8.615,0,0,0,.44-2.78,4.027,4.027,0,0,0-1.1-2.98,4.027,4.027,0,0,0-2.98-1.1,5.433,5.433,0,0,0-2.5.56,5.869,5.869,0,0,0-1.9,1.54,6.876,6.876,0,0,0-1.22,2.32,9.51,9.51,0,0,0-.42,2.86,4.247,4.247,0,0,0,1,3A3.627,3.627,0,0,0,11.52-4.24ZM38.6-.48a5.49,5.49,0,0,1-1.64.8,5.955,5.955,0,0,1-1.64.24,4.745,4.745,0,0,1-1.68-.3,4.355,4.355,0,0,1-1.4-.84A3.784,3.784,0,0,1,31.3-1.9a4.31,4.31,0,0,1-.34-1.74,6.092,6.092,0,0,1,.16-1.4l4.36-18.2-.4-.28-5.36,3.68L27.2-23.6,33-27.52a5.49,5.49,0,0,1,1.64-.8,5.955,5.955,0,0,1,1.64-.24,4.745,4.745,0,0,1,1.68.3,4.355,4.355,0,0,1,1.4.84,3.784,3.784,0,0,1,.94,1.32,4.31,4.31,0,0,1,.34,1.74,6.833,6.833,0,0,1-.16,1.4L36.12-4.76l.4.28,5.36-3.68L44.4-4.4Zm23.96,0a5.49,5.49,0,0,1-1.64.8,5.955,5.955,0,0,1-1.64.24A4.745,4.745,0,0,1,57.6.26a4.355,4.355,0,0,1-1.4-.84,3.784,3.784,0,0,1-.94-1.32,4.31,4.31,0,0,1-.34-1.74,5.767,5.767,0,0,1,.16-1.4l2.4-10.04-.4-.28-5.36,3.68L49.2-15.44,55-19.36a5.49,5.49,0,0,1,1.64-.8,5.955,5.955,0,0,1,1.64-.24,4.745,4.745,0,0,1,1.68.3,4.355,4.355,0,0,1,1.4.84,3.784,3.784,0,0,1,.94,1.32,4.31,4.31,0,0,1,.34,1.74,5.767,5.767,0,0,1-.16,1.4L60.08-4.76l.4.28,5.36-3.68L68.36-4.4Zm3.48-25.24a3.767,3.767,0,0,1-.3,1.5,3.623,3.623,0,0,1-.82,1.2,4.034,4.034,0,0,1-1.22.8,3.669,3.669,0,0,1-1.46.3,3.626,3.626,0,0,1-1.48-.3,4.107,4.107,0,0,1-1.2-.8,3.623,3.623,0,0,1-.82-1.2,3.767,3.767,0,0,1-.3-1.5,3.767,3.767,0,0,1,.3-1.5,3.623,3.623,0,0,1,.82-1.2,4.108,4.108,0,0,1,1.2-.8,3.626,3.626,0,0,1,1.48-.3,3.669,3.669,0,0,1,1.46.3,4.034,4.034,0,0,1,1.22.8,3.623,3.623,0,0,1,.82,1.2A3.767,3.767,0,0,1,66.04-25.72ZM79.76-15.04h-5.6v-4.8H80.8l1.84-8.72h5.04l-1.84,8.72h6.88v4.8H84.8L82.56-4.76l.4.28,5.36-3.68L90.84-4.4,85.04-.48A5.636,5.636,0,0,1,81.8.56a4.745,4.745,0,0,1-1.68-.3,4.178,4.178,0,0,1-1.4-.86,4.183,4.183,0,0,1-.96-1.36,4.34,4.34,0,0,1-.36-1.8,3.835,3.835,0,0,1,.04-.58q.04-.26.12-.7ZM113.48-4.8V0H96.32V-7.88l14.96-6.6v-.72H99.64v-4.64h16.44v7.76L101.2-5.52v.72Z" transform="translate(-0.8 29.52)" fill="#3f3d3d" opacity="0.9"/>
</svg>
