<svg xmlns="http://www.w3.org/2000/svg" width="68.426" height="95.576" viewBox="0 0 68.426 95.576"><defs><style>.a{fill:#a2a2a2;stroke:#313030;}</style></defs><g transform="translate(0.5 0.678)"><g transform="translate(0)"><path class="a" d="M73.343,40.106A16.869,16.869,0,0,0,56.52,24H22.84A16.868,16.868,0,0,0,6,40.856a3.369,3.369,0,0,0,3.368,3.371H69.992c.026,0,.049,0,.066,0a3.369,3.369,0,0,0,3.368-3.371A3.321,3.321,0,0,0,73.343,40.106Z" transform="translate(-6 50.169)"/><path class="a" d="M48.156,19.675l-12.843,18a3.368,3.368,0,1,1-5.48-3.918L44.186,13.64a77.755,77.755,0,0,0-9.34-10.756,3.364,3.364,0,0,0-4.546,0C29.432,3.679,9,22.647,9,45.827a23.546,23.546,0,0,0,6.039,15.737,3.363,3.363,0,0,0,2.506,1.119H47.6a3.363,3.363,0,0,0,2.506-1.119,23.546,23.546,0,0,0,6.039-15.737C56.149,35.989,52.46,26.928,48.156,19.675Z" transform="translate(1.107 -2)"/><path class="a" d="M52.781,27.743H12.365a3.371,3.371,0,0,1,0-6.743H52.781a3.371,3.371,0,0,1,0,6.743Z" transform="translate(1.107 43.055)"/></g></g></svg>