<svg xmlns="http://www.w3.org/2000/svg" xmlns:xlink="http://www.w3.org/1999/xlink" version="1.1" x="0px" y="0px" viewBox="0 0 32 40" style="enable-background:new 0 0 32 32;" xml:space="preserve"><g><path d="M25.9756,28.7772c-0.1171-2.6538-2.3102-4.7773-4.9902-4.7773h-9.9902c-2.7541,0-4.9951,2.2432-4.9951,5   c0,0.5522,0.4468,1,0.999,1h17.9824c0.0078,0.0005,0.0146,0,0.0195,0c0.5522,0,0.999-0.4478,0.999-1   C26,28.9232,25.9922,28.849,25.9756,28.7772z"/><path d="M20.6124,7.2425l-3.8095,5.3384c-0.1951,0.2734-0.5015,0.4189-0.8137,0.4189c-0.201,0-0.4039-0.0605-0.5795-0.186   c-0.4488-0.3213-0.5532-0.9458-0.2322-1.395l4.2574-5.9662c-1.3768-1.894-2.6552-3.085-2.7705-3.1906   c-0.3824-0.3496-0.9659-0.3496-1.3483,0c-0.2576,0.2358-6.319,5.8623-6.319,12.7378c0,1.7222,0.6361,3.3799,1.7912,4.668   c0.1893,0.2114,0.4595,0.332,0.7434,0.332h8.9171c0.2839,0,0.5541-0.1206,0.7434-0.332c1.1551-1.2881,1.7912-2.9458,1.7912-4.668   C22.9834,12.0816,21.8891,9.3941,20.6124,7.2425z"/><path d="M21.9844,22.9999H9.9961c-0.5522,0-0.999-0.4478-0.999-1s0.4468-1,0.999-1h11.9883c0.5522,0,0.999,0.4478,0.999,1   S22.5366,22.9999,21.9844,22.9999z"/></g><text x="0" y="47" fill="#000000" font-size="5px" font-weight="bold" font-family="'Helvetica Neue', Helvetica, Arial-Unicode, Arial, Sans-serif">Created by M. Oki Orlando</text><text x="0" y="52" fill="#000000" font-size="5px" font-weight="bold" font-family="'Helvetica Neue', Helvetica, Arial-Unicode, Arial, Sans-serif">from the Noun Project</text></svg>