<svg xmlns="http://www.w3.org/2000/svg" xmlns:xlink="http://www.w3.org/1999/xlink" version="1.1" x="0px" y="0px" viewBox="0 0 32 40" style="enable-background:new 0 0 32 32;" xml:space="preserve"><g><path d="M21,24H11c-2.7568,0-5,2.2432-5,5c0,0.5522,0.4478,1,1,1h18c0.0063-0.0005,0.0132,0,0.02,0c0.5522,0,1-0.4478,1-1   c0-0.0767-0.0088-0.1509-0.0249-0.2227C25.8779,26.1235,23.6821,24,21,24z"/><path d="M11.4155,9.811c0.2607,0.1875,0.5952,0.2383,0.9009,0.1377l1.1025-0.3677l-0.3677,1.1025   c-0.1016,0.3052-0.0503,0.6401,0.1377,0.9009C13.377,11.8457,13.6787,12,14,12h4c0.3213,0,0.623-0.1543,0.811-0.4155   c0.188-0.2607,0.2393-0.5957,0.1377-0.9009l-0.3677-1.1025l1.1025,0.3677c0.3037,0.1006,0.6396,0.0498,0.9009-0.1377   C20.8457,9.623,21,9.3213,21,9V5c0-0.3213-0.1543-0.623-0.4155-0.811C20.3232,4,19.9873,3.9492,19.6836,4.0513l-1.1025,0.3677   l0.3677-1.1025c0.1016-0.3052,0.0503-0.6401-0.1377-0.9009C18.623,2.1543,18.3213,2,18,2h-4c-0.3213,0-0.623,0.1543-0.811,0.4155   c-0.188,0.2607-0.2393,0.5957-0.1377,0.9009l0.3677,1.1025l-1.1025-0.3677C12.0107,3.9492,11.6763,4,11.4155,4.189   C11.1543,4.377,11,4.6787,11,5v4C11,9.3213,11.1543,9.623,11.4155,9.811z"/><path d="M22,23c0.5522,0,1-0.4478,1-1s-0.4478-1-1-1H10c-0.5522,0-1,0.4478-1,1s0.4478,1,1,1H22z"/><path d="M26.5562,13.1519c-2.1157-1.415-4.9775-1.5142-7.1841-0.248L16,14.8369l-3.3721-1.9331   c-2.207-1.2661-5.0693-1.167-7.1841,0.248c-0.4424,0.2959-0.5757,0.8872-0.3022,1.3442l3,5.0171C8.3223,19.8149,8.6484,20,9,20h14   c0.3516,0,0.6777-0.1851,0.8584-0.4868l3-5.0171C27.1318,14.0391,26.9985,13.4478,26.5562,13.1519z"/></g><text x="0" y="47" fill="#000000" font-size="5px" font-weight="bold" font-family="'Helvetica Neue', Helvetica, Arial-Unicode, Arial, Sans-serif">Created by M. Oki Orlando</text><text x="0" y="52" fill="#000000" font-size="5px" font-weight="bold" font-family="'Helvetica Neue', Helvetica, Arial-Unicode, Arial, Sans-serif">from the Noun Project</text></svg>