<svg xmlns="http://www.w3.org/2000/svg" xmlns:xlink="http://www.w3.org/1999/xlink" version="1.1" x="0px" y="0px" viewBox="0 0 32 40" style="enable-background:new 0 0 32 32;" xml:space="preserve"><g><path d="M26.9767,28.7772c-0.112-2.6538-2.2101-4.7773-4.7739-4.7773h-9.5571c-2.6347,0-4.7785,2.2432-4.7785,5   c0,0.5522,0.4275,1,0.9557,1h17.2028c0.0065,0.0005,0.014,0,0.0187,0c0.5283,0,0.9557-0.4478,0.9557-1   C27,28.9232,26.9925,28.849,26.9767,28.7772z"/><path d="M23.1585,22.9999H11.69c-0.5283,0-0.9557-0.4478-0.9557-1s0.4275-1,0.9557-1h11.4685c0.5283,0,0.9557,0.4478,0.9557,1   S23.6868,22.9999,23.1585,22.9999z"/><path d="M25.8393,10.7084c-1.1041-5.1274-5.3824-8.7085-10.4055-8.7085h-0.1941c-2.0831,0-4.6124,1.5269-5.0576,3.7993   c-0.0579,0.2944,0.014,0.6001,0.196,0.833c0.0233,0.0308,0.0495,0.0596,0.0765,0.0869L5.6172,11.285   c-0.0635,0.0605-0.1195,0.1299-0.1661,0.2056c-0.5432,0.894-0.6001,2.0381-0.1475,2.9878   c0.4835,1.0088,1.6109,1.4731,2.6198,1.0859l4.1044-1.918c0,0,1.2254,0.8535,1.9693,0.8535h1.12   c1.5353,0,2.785-1.3071,2.785-2.9141V9.9999c0-0.2764,0.2137-0.5,0.4779-0.5c0.2641,0,0.4779,0.2236,0.4779,0.5v1.5859   c0,2.1582-1.6781,3.9141-3.7407,3.9141h-1.12c-0.3049,0-0.6004-0.0503-0.8893-0.1241c-0.5838,1.0887-0.9388,2.3545-0.9388,3.6241   c0,0.5522,0.4275,1,0.9557,1h10.0667c0.3621,0,0.6925-0.2139,0.8549-0.5522l0.1288-0.2695   C25.2914,16.8427,26.4888,13.7699,25.8393,10.7084z M14.4171,6.8534l-0.9557,1c-0.0933,0.0977-0.2156,0.1465-0.3379,0.1465   c-0.1223,0-0.2445-0.0488-0.3379-0.1465c-0.1867-0.1953-0.1867-0.5117,0-0.707l0.9557-1c0.1867-0.1953,0.4891-0.1953,0.6757,0   C14.6038,6.3417,14.6038,6.6581,14.4171,6.8534z"/></g><text x="0" y="47" fill="#000000" font-size="5px" font-weight="bold" font-family="'Helvetica Neue', Helvetica, Arial-Unicode, Arial, Sans-serif">Created by M. Oki Orlando</text><text x="0" y="52" fill="#000000" font-size="5px" font-weight="bold" font-family="'Helvetica Neue', Helvetica, Arial-Unicode, Arial, Sans-serif">from the Noun Project</text></svg>