<svg xmlns="http://www.w3.org/2000/svg" xmlns:xlink="http://www.w3.org/1999/xlink" version="1.1" x="0px" y="0px" viewBox="0 0 32 40" style="enable-background:new 0 0 32 32;" xml:space="preserve"><g><path d="M25.9951,28.7773C25.8779,26.1235,23.6821,24,21,24H11c-2.7568,0-5,2.2432-5,5c0,0.5522,0.4478,1,1,1h18   c0.0073-0.0005,0.0132,0,0.02,0c0.5522,0,1-0.4478,1-1C26.02,28.9233,26.0112,28.8491,25.9951,28.7773z"/><path d="M26.6553,9.2446c-0.3062-0.2651-0.7407-0.3203-1.1025-0.1392l-5.2104,2.6055L16.832,6.4453   c-0.3711-0.5566-1.293-0.5566-1.6641,0l-3.5103,5.2656L6.4473,9.1055C6.085,8.9243,5.6509,8.9795,5.3447,9.2446   c-0.3057,0.2651-0.4214,0.688-0.2935,1.0718l3,9C8.1875,19.7246,8.5693,20,9,20h14c0.4307,0,0.8125-0.2754,0.9487-0.6836l3-9   C27.0767,9.9326,26.9609,9.5098,26.6553,9.2446z"/><circle cx="4" cy="8" r="2"/><circle cx="16" cy="4" r="2"/><circle cx="28" cy="8" r="2"/><path d="M22,23H10c-0.5522,0-1-0.4478-1-1s0.4478-1,1-1h12c0.5522,0,1,0.4478,1,1S22.5522,23,22,23z"/></g><text x="0" y="47" fill="#000000" font-size="5px" font-weight="bold" font-family="'Helvetica Neue', Helvetica, Arial-Unicode, Arial, Sans-serif">Created by M. Oki Orlando</text><text x="0" y="52" fill="#000000" font-size="5px" font-weight="bold" font-family="'Helvetica Neue', Helvetica, Arial-Unicode, Arial, Sans-serif">from the Noun Project</text></svg>