<svg xmlns="http://www.w3.org/2000/svg" xmlns:xlink="http://www.w3.org/1999/xlink" version="1.1" x="0px" y="0px" viewBox="0 0 32 40" style="enable-background:new 0 0 32 32;" xml:space="preserve"><g><path d="M24.7471,2.3447C24.5569,2.126,24.2817,2,23.992,2h-2.997c-0.5522,0-0.999,0.4478-0.999,1v2h-0.999V3   c0-0.5522-0.4468-1-0.999-1h-3.996c-0.5517,0-0.999,0.4478-0.999,1v2h-0.999V3c0-0.5522-0.4473-1-0.999-1H8.008   C7.7183,2,7.4431,2.126,7.2534,2.3447C7.0636,2.564,6.9783,2.8545,7.0192,3.1416l0.999,7C8.0885,10.6343,8.5099,11,9.007,11h13.986   c0.4975,0,0.919-0.3657,0.9892-0.8584l0.999-7C25.0222,2.8545,24.9364,2.564,24.7471,2.3447z"/><path d="M21.994,14H10.006c-0.5517,0-0.999-0.4478-0.999-1s0.4473-1,0.999-1h11.988c0.5522,0,0.999,0.4478,0.999,1   S22.5462,14,21.994,14z"/><path d="M25.9751,28.7773C25.8581,26.1235,23.6644,24,20.985,24h-9.99C8.2409,24,6,26.2432,6,29c0,0.5522,0.4473,1,0.999,1h17.982   c0.0063-0.001,0.0132-0.0005,0.02,0C25.5527,30,26,29.5522,26,29C26,28.9233,25.9912,28.8491,25.9751,28.7773z"/><path d="M10.995,23h9.99c0.0744,0,0.1468,0.008,0.2205,0.0107c-0.7966-2.0623-1.2195-4.2722-1.2195-6.4828V16   c0-0.5522-0.4473-1-0.999-1h-5.994c-0.5517,0-0.999,0.4478-0.999,1v0.5278c0,2.2108-0.423,4.4209-1.2197,6.4833   C10.8482,23.0085,10.9205,23,10.995,23z"/></g><text x="0" y="47" fill="#000000" font-size="5px" font-weight="bold" font-family="'Helvetica Neue', Helvetica, Arial-Unicode, Arial, Sans-serif">Created by M. Oki Orlando</text><text x="0" y="52" fill="#000000" font-size="5px" font-weight="bold" font-family="'Helvetica Neue', Helvetica, Arial-Unicode, Arial, Sans-serif">from the Noun Project</text></svg>